<?xml version="1.0" encoding="us-ascii" standalone="no"?><svg xmlns="http://www.w3.org/2000/svg" xmlns:xlink="http://www.w3.org/1999/xlink" contentStyleType="text/css" height="214px" preserveAspectRatio="none" style="width:355px;height:214px;background:#FFFFFF;" version="1.1" viewBox="0 0 355 214" width="355px" zoomAndPan="magnify"><defs/><g><line style="stroke:#181818;stroke-width:0.5;stroke-dasharray:5.0,5.0;" x1="208" x2="208" y1="36.2969" y2="178.8281"/><line style="stroke:#181818;stroke-width:0.5;stroke-dasharray:5.0,5.0;" x1="324.5" x2="324.5" y1="36.2969" y2="178.8281"/><rect fill="#E2E2F0" height="30.2969" rx="2.5" ry="2.5" style="stroke:#181818;stroke-width:0.5;" width="69" x="174" y="5"/><text fill="#000000" font-family="sans-serif" font-size="14" lengthAdjust="spacing" textLength="55" x="181" y="24.9951">VSCode</text><rect fill="#E2E2F0" height="30.2969" rx="2.5" ry="2.5" style="stroke:#181818;stroke-width:0.5;" width="69" x="174" y="177.8281"/><text fill="#000000" font-family="sans-serif" font-size="14" lengthAdjust="spacing" textLength="55" x="181" y="197.8232">VSCode</text><rect fill="#E2E2F0" height="30.2969" rx="2.5" ry="2.5" style="stroke:#181818;stroke-width:0.5;" width="50" x="299.5" y="5"/><text fill="#000000" font-family="sans-serif" font-size="14" lengthAdjust="spacing" textLength="36" x="306.5" y="24.9951">Foyle</text><rect fill="#E2E2F0" height="30.2969" rx="2.5" ry="2.5" style="stroke:#181818;stroke-width:0.5;" width="50" x="299.5" y="177.8281"/><text fill="#000000" font-family="sans-serif" font-size="14" lengthAdjust="spacing" textLength="36" x="306.5" y="197.8232">Foyle</text><polygon fill="#181818" points="312.5,63.4297,322.5,67.4297,312.5,71.4297,316.5,67.4297" style="stroke:#181818;stroke-width:1.0;"/><line style="stroke:#181818;stroke-width:1.0;" x1="208.5" x2="318.5" y1="67.4297" y2="67.4297"/><text fill="#000000" font-family="sans-serif" font-size="13" lengthAdjust="spacing" textLength="92" x="215.5" y="62.3638">Generate cells</text><polygon fill="#181818" points="219.5,92.5625,209.5,96.5625,219.5,100.5625,215.5,96.5625" style="stroke:#181818;stroke-width:1.0;"/><line style="stroke:#181818;stroke-width:1.0;" x1="213.5" x2="323.5" y1="96.5625" y2="96.5625"/><text fill="#000000" font-family="sans-serif" font-size="13" lengthAdjust="spacing" textLength="59" x="225.5" y="91.4966">New cells</text><path d="M5,109.5625 L5,134.5625 L204,134.5625 L204,119.5625 L194,109.5625 L5,109.5625 " fill="#FEFFDD" style="stroke:#181818;stroke-width:0.5;"/><path d="M194,109.5625 L194,119.5625 L204,119.5625 L194,109.5625 " fill="#FEFFDD" style="stroke:#181818;stroke-width:0.5;"/><text fill="#000000" font-family="sans-serif" font-size="13" lengthAdjust="spacing" textLength="178" x="11" y="126.6294">Cell IDs stored as metadata</text><polygon fill="#181818" points="312.5,156.8281,322.5,160.8281,312.5,164.8281,316.5,160.8281" style="stroke:#181818;stroke-width:1.0;"/><line style="stroke:#181818;stroke-width:1.0;" x1="208.5" x2="318.5" y1="160.8281" y2="160.8281"/><text fill="#000000" font-family="sans-serif" font-size="13" lengthAdjust="spacing" textLength="76" x="215.5" y="155.7622">Execute cell</text><!--SRC=[DOqx3eGm4CNwdE9T81UWICC2eg5PYNwKFAh0I6JGmkqNyMbjInw_jIRwqEgHMQ7ZmbMCYCovk8lwC5vHXO6_My0jUaQPaq4dlBu-7VfFGJ5TcI05CqsIcBYxWGzuLitEk3sdFm00]--></g></svg>