<?xml version="1.0" encoding="us-ascii" standalone="no"?><svg xmlns="http://www.w3.org/2000/svg" xmlns:xlink="http://www.w3.org/1999/xlink" contentStyleType="text/css" height="263px" preserveAspectRatio="none" style="width:388px;height:263px;background:#FFFFFF;" version="1.1" viewBox="0 0 388 263" width="388px" zoomAndPan="magnify"><defs/><g><line style="stroke:#181818;stroke-width:0.5;stroke-dasharray:5.0,5.0;" x1="28" x2="28" y1="36.2969" y2="227.9609"/><line style="stroke:#181818;stroke-width:0.5;stroke-dasharray:5.0,5.0;" x1="242" x2="242" y1="36.2969" y2="227.9609"/><rect fill="#E2E2F0" height="30.2969" rx="2.5" ry="2.5" style="stroke:#181818;stroke-width:0.5;" width="46" x="5" y="5"/><text fill="#000000" font-family="sans-serif" font-size="14" lengthAdjust="spacing" textLength="32" x="12" y="24.9951">User</text><rect fill="#E2E2F0" height="30.2969" rx="2.5" ry="2.5" style="stroke:#181818;stroke-width:0.5;" width="46" x="5" y="226.9609"/><text fill="#000000" font-family="sans-serif" font-size="14" lengthAdjust="spacing" textLength="32" x="12" y="246.9561">User</text><rect fill="#E2E2F0" height="30.2969" rx="2.5" ry="2.5" style="stroke:#181818;stroke-width:0.5;" width="26" x="229" y="5"/><text fill="#000000" font-family="sans-serif" font-size="14" lengthAdjust="spacing" textLength="12" x="236" y="24.9951">AI</text><rect fill="#E2E2F0" height="30.2969" rx="2.5" ry="2.5" style="stroke:#181818;stroke-width:0.5;" width="26" x="229" y="226.9609"/><text fill="#000000" font-family="sans-serif" font-size="14" lengthAdjust="spacing" textLength="12" x="236" y="246.9561">AI</text><polygon fill="#181818" points="230,63.4297,240,67.4297,230,71.4297,234,67.4297" style="stroke:#181818;stroke-width:1.0;"/><line style="stroke:#181818;stroke-width:1.0;" x1="28" x2="236" y1="67.4297" y2="67.4297"/><text fill="#000000" font-family="sans-serif" font-size="13" lengthAdjust="spacing" textLength="190" x="35" y="62.3638">Accomplish &lt;high level task&gt;</text><polygon fill="#181818" points="39,92.5625,29,96.5625,39,100.5625,35,96.5625" style="stroke:#181818;stroke-width:1.0;"/><line style="stroke:#181818;stroke-width:1.0;" x1="33" x2="241" y1="96.5625" y2="96.5625"/><text fill="#000000" font-family="sans-serif" font-size="13" lengthAdjust="spacing" textLength="176" x="45" y="91.4966">Cells containing commands</text><line style="stroke:#181818;stroke-width:1.0;" x1="28" x2="70" y1="125.6953" y2="125.6953"/><line style="stroke:#181818;stroke-width:1.0;" x1="70" x2="70" y1="125.6953" y2="138.6953"/><line style="stroke:#181818;stroke-width:1.0;" x1="29" x2="70" y1="138.6953" y2="138.6953"/><polygon fill="#181818" points="39,134.6953,29,138.6953,39,142.6953,35,138.6953" style="stroke:#181818;stroke-width:1.0;"/><text fill="#000000" font-family="sans-serif" font-size="13" lengthAdjust="spacing" textLength="163" x="35" y="120.6294">Iterate on the commands</text><polygon fill="#181818" points="230,163.8281,240,167.8281,230,171.8281,234,167.8281" style="stroke:#181818;stroke-width:1.0;"/><line style="stroke:#181818;stroke-width:1.0;" x1="28" x2="236" y1="167.8281" y2="167.8281"/><text fill="#000000" font-family="sans-serif" font-size="13" lengthAdjust="spacing" textLength="98" x="35" y="162.7622">Final command</text><line style="stroke:#181818;stroke-width:1.0;" x1="242" x2="284" y1="196.9609" y2="196.9609"/><line style="stroke:#181818;stroke-width:1.0;" x1="284" x2="284" y1="196.9609" y2="209.9609"/><line style="stroke:#181818;stroke-width:1.0;" x1="243" x2="284" y1="209.9609" y2="209.9609"/><polygon fill="#181818" points="253,205.9609,243,209.9609,253,213.9609,249,209.9609" style="stroke:#181818;stroke-width:1.0;"/><text fill="#000000" font-family="sans-serif" font-size="13" lengthAdjust="spacing" textLength="132" x="249" y="191.895">Learn from feedback</text><!--SRC=[POpB2SCm44Jlhc8QS0F264GW8CZL1MpajIMyMWL9fFx8-Pnocc7cyPRA1UCCws1WlS_f8R46J27k0S9F5ZIgnpmi9pcDdJIui4Y5pzeeQjIzrvH8r_gXkk-T1gvneSR8YXRu7pjbrwWalskmxZlVc8fYApbXOrxlv8yN]--></g></svg>